<?xml version="1.0" encoding="UTF-8" standalone="no"?>
<!DOCTYPE svg PUBLIC "-//W3C//DTD SVG 1.1//EN" "http://www.w3.org/Graphics/SVG/1.1/DTD/svg11.dtd">
<svg width="100%" height="100%" viewBox="0 0 1000 280" version="1.1" xmlns="http://www.w3.org/2000/svg" xmlns:xlink="http://www.w3.org/1999/xlink" xml:space="preserve" style="fill-rule:evenodd;clip-rule:evenodd;stroke-linejoin:round;stroke-miterlimit:1.41421;">
    <g transform="matrix(0.848748,0,0,0.848748,-47.5994,47.4027)">
        <path d="M310.385,66.403L249.617,215.731L214.769,215.731C213.041,215.731 211.625,215.155 210.521,214.003C209.417,212.851 208.625,210.931 208.145,208.243L197.201,133.795C196.913,131.683 196.649,129.595 196.409,127.531C196.169,125.467 195.953,123.331 195.761,121.123C194.993,123.331 194.201,125.491 193.385,127.603C192.569,129.715 191.729,131.875 190.865,134.083L162.353,208.243C160.337,213.235 157.169,215.731 152.849,215.731L119.441,215.731L94.961,66.403L129.233,66.403C132.113,66.403 134.489,67.147 136.361,68.635C138.233,70.123 139.409,71.971 139.889,74.179L144.209,141.139C144.881,150.931 145.313,160.435 145.505,169.651C147.233,165.043 149.057,160.363 150.977,155.611C152.897,150.859 154.865,146.035 156.881,141.139L181.937,74.035C182.801,71.827 184.337,69.979 186.545,68.491C188.753,67.003 191.153,66.259 193.745,66.259L213.041,66.259C216.113,66.259 218.585,67.003 220.457,68.491C222.329,69.979 223.409,71.827 223.697,74.035L232.337,141.139C233.105,146.035 233.777,150.835 234.353,155.539C234.929,160.243 235.457,164.947 235.937,169.651C237.281,165.043 238.697,160.387 240.185,155.683C241.673,150.979 243.281,146.131 245.009,141.139L266.033,74.179C266.801,71.971 268.265,70.123 270.425,68.635C272.585,67.147 274.961,66.403 277.553,66.403L310.385,66.403Z" style="fill:none;"/>
        <path d="M384.113,94.771C376.817,94.771 370.169,96.403 364.169,99.667C358.169,102.931 353.009,107.371 348.689,112.987C344.369,118.603 341.033,125.131 338.681,132.571C336.329,140.011 335.153,147.955 335.153,156.403C335.153,161.203 335.537,165.283 336.305,168.643C337.073,172.003 338.105,174.715 339.401,176.779C340.697,178.843 342.233,180.355 344.009,181.315C345.785,182.275 347.729,182.755 349.841,182.755C353.105,182.755 356.273,181.531 359.345,179.083C362.417,176.635 365.321,173.299 368.057,169.075C370.793,164.851 373.313,159.907 375.617,154.243C377.921,148.579 379.889,142.531 381.521,136.099L386.849,94.771L384.113,94.771ZM377.201,190.819C371.153,199.267 364.361,205.915 356.825,210.763C349.289,215.611 341.009,218.035 331.985,218.035C326.609,218.035 321.425,216.955 316.433,214.795C311.441,212.635 307.025,209.371 303.185,205.003C299.345,200.635 296.273,195.067 293.969,188.299C291.665,181.531 290.513,173.539 290.513,164.323C290.513,150.787 292.985,137.947 297.929,125.803C302.873,113.659 309.785,103.027 318.665,93.907C327.545,84.787 338.081,77.539 350.273,72.163C362.465,66.787 375.857,64.099 390.449,64.099C397.553,64.099 404.753,64.579 412.049,65.539C419.345,66.499 426.545,68.227 433.649,70.723L415.505,215.731L391.601,215.731C388.817,215.731 386.489,215.371 384.617,214.651C382.745,213.931 381.257,212.947 380.153,211.699C379.049,210.451 378.281,208.963 377.849,207.235C377.417,205.507 377.201,203.635 377.201,201.619L377.201,190.819Z" style="fill:none;"/>
        <path d="M486.497,97.219C490.145,90.787 494.033,85.267 498.161,80.659C502.289,76.051 506.537,72.475 510.905,69.931C515.273,67.387 519.737,65.947 524.297,65.611C528.857,65.275 533.441,66.163 538.049,68.275L529.985,109.603C524.513,107.299 519.401,106.243 514.649,106.435C509.897,106.627 505.529,108.259 501.545,111.331C497.561,114.403 493.961,119.011 490.745,125.155C487.529,131.299 484.769,139.171 482.465,148.771L474.401,215.731L430.625,215.731L448.769,66.403L471.809,66.403C476.417,66.403 480.017,67.483 482.609,69.643C485.201,71.803 486.497,75.331 486.497,80.227L486.497,97.219Z" style="fill:none;"/>
        <path d="M599.969,94.483C592.577,94.483 586.097,97.435 580.529,103.339C574.961,109.243 570.833,117.331 568.145,127.603C577.361,126.163 584.849,124.627 590.609,122.995C596.369,121.363 600.833,119.611 604.001,117.739C607.169,115.867 609.305,113.875 610.409,111.763C611.513,109.651 612.065,107.347 612.065,104.851C612.065,102.355 611.105,100.003 609.185,97.795C607.265,95.587 604.193,94.483 599.969,94.483ZM649.217,188.083C643.937,193.267 638.777,197.755 633.737,201.547C628.697,205.339 623.513,208.459 618.185,210.907C612.857,213.355 607.193,215.155 601.193,216.307C595.193,217.459 588.641,218.035 581.537,218.035C572.705,218.035 564.593,216.523 557.201,213.499C549.809,210.475 543.449,206.203 538.121,200.683C532.793,195.163 528.665,188.515 525.737,180.739C522.809,172.963 521.345,164.323 521.345,154.819C521.345,146.851 522.233,139.075 524.009,131.491C525.785,123.907 528.329,116.779 531.641,110.107C534.953,103.435 539.009,97.291 543.809,91.675C548.609,86.059 554.009,81.235 560.009,77.203C566.009,73.171 572.585,70.027 579.737,67.771C586.889,65.515 594.497,64.387 602.561,64.387C610.529,64.387 617.609,65.539 623.801,67.843C629.993,70.147 635.201,73.147 639.425,76.843C643.649,80.539 646.865,84.691 649.073,89.299C651.281,93.907 652.385,98.515 652.385,103.123C652.385,109.939 651.041,116.155 648.353,121.771C645.665,127.387 640.985,132.403 634.313,136.819C627.641,141.235 618.665,144.979 607.385,148.051C596.105,151.123 581.921,153.523 564.833,155.251C565.025,165.427 567.257,172.867 571.529,177.571C575.801,182.275 582.113,184.627 590.465,184.627C594.401,184.627 597.809,184.291 600.689,183.619C603.569,182.947 606.089,182.083 608.249,181.027C610.409,179.971 612.353,178.867 614.081,177.715C615.809,176.563 617.465,175.459 619.049,174.403C620.633,173.347 622.289,172.483 624.017,171.811C625.745,171.139 627.713,170.803 629.921,170.803C631.361,170.803 632.753,171.163 634.097,171.883C635.441,172.603 636.641,173.539 637.697,174.691L649.217,188.083Z" style="fill:none;"/>
        <path d="M710.417,85.987C717.137,78.499 724.289,72.979 731.873,69.427C739.457,65.875 747.281,64.099 755.345,64.099C761.585,64.099 767.273,65.347 772.409,67.843C777.545,70.339 781.841,73.987 785.297,78.787C788.753,83.587 791.201,89.515 792.641,96.571C794.081,103.627 794.225,111.715 793.073,120.835L781.841,215.731L737.201,215.731L748.433,120.835C748.913,116.803 749.057,113.395 748.865,110.611C748.673,107.827 748.145,105.571 747.281,103.843C746.417,102.115 745.217,100.891 743.681,100.171C742.145,99.451 740.273,99.091 738.065,99.091C735.089,99.091 731.969,99.979 728.705,101.755C725.441,103.531 722.297,106.051 719.273,109.315C716.249,112.579 713.417,116.539 710.777,121.195C708.137,125.851 705.953,131.011 704.225,136.675L694.577,215.731L649.937,215.731L676.145,0.163L720.785,0.163L710.417,85.987Z" style="fill:none;"/>
        <path d="M889.121,94.771C881.825,94.771 875.177,96.403 869.177,99.667C863.177,102.931 858.017,107.371 853.697,112.987C849.377,118.603 846.041,125.131 843.689,132.571C841.337,140.011 840.161,147.955 840.161,156.403C840.161,161.203 840.545,165.283 841.313,168.643C842.081,172.003 843.113,174.715 844.409,176.779C845.705,178.843 847.241,180.355 849.017,181.315C850.793,182.275 852.737,182.755 854.849,182.755C858.113,182.755 861.281,181.531 864.353,179.083C867.425,176.635 870.329,173.299 873.065,169.075C875.801,164.851 878.321,159.907 880.625,154.243C882.929,148.579 884.897,142.531 886.529,136.099L891.857,94.771L889.121,94.771ZM882.209,190.819C876.161,199.267 869.369,205.915 861.833,210.763C854.297,215.611 846.017,218.035 836.993,218.035C831.617,218.035 826.433,216.955 821.441,214.795C816.449,212.635 812.033,209.371 808.193,205.003C804.353,200.635 801.281,195.067 798.977,188.299C796.673,181.531 795.521,173.539 795.521,164.323C795.521,150.787 797.993,137.947 802.937,125.803C807.881,113.659 814.793,103.027 823.673,93.907C832.553,84.787 843.089,77.539 855.281,72.163C867.473,66.787 880.865,64.099 895.457,64.099C902.561,64.099 909.761,64.579 917.057,65.539C924.353,66.499 931.553,68.227 938.657,70.723L920.513,215.731L896.609,215.731C893.825,215.731 891.497,215.371 889.625,214.651C887.753,213.931 886.265,212.947 885.161,211.699C884.057,210.451 883.289,208.963 882.857,207.235C882.425,205.507 882.209,203.635 882.209,201.619L882.209,190.819Z" style="fill:none;"/>
        <path d="M1084.24,66.403L1066.1,215.731L1043.35,215.731C1032.79,215.731 1027.51,210.835 1027.51,201.043L1027.51,191.539C1020.31,200.563 1012.58,207.235 1004.32,211.555C996.065,215.875 987.473,218.035 978.545,218.035C972.305,218.035 966.641,216.787 961.553,214.291C956.465,211.795 952.217,208.123 948.809,203.275C945.401,198.427 942.977,192.475 941.537,185.419C940.097,178.363 939.953,170.275 941.105,161.155L952.337,66.403L996.977,66.403L985.745,161.155C985.265,165.187 985.097,168.595 985.241,171.379C985.385,174.163 985.889,176.395 986.753,178.075C987.617,179.755 988.793,180.955 990.281,181.675C991.769,182.395 993.617,182.755 995.825,182.755C998.897,182.755 1002.07,181.867 1005.33,180.091C1008.59,178.315 1011.76,175.819 1014.83,172.603C1017.9,169.387 1020.76,165.475 1023.4,160.867C1026.04,156.259 1028.22,151.123 1029.95,145.459L1039.6,66.403L1084.24,66.403Z" style="fill:none;"/>
        <path d="M1183.89,97.795C1182.55,99.523 1181.3,100.771 1180.14,101.539C1178.99,102.307 1177.46,102.691 1175.54,102.691C1173.62,102.691 1171.72,102.259 1169.85,101.395C1167.98,100.531 1165.96,99.547 1163.8,98.443C1161.64,97.339 1159.19,96.355 1156.46,95.491C1153.72,94.627 1150.58,94.195 1147.03,94.195C1140.4,94.195 1135.67,95.467 1132.84,98.011C1130.01,100.555 1128.59,103.843 1128.59,107.875C1128.59,110.467 1129.38,112.675 1130.97,114.499C1132.55,116.323 1134.64,117.955 1137.23,119.395C1139.83,120.835 1142.78,122.155 1146.09,123.355C1149.4,124.555 1152.79,125.899 1156.24,127.387C1159.7,128.875 1163.08,130.579 1166.39,132.499C1169.7,134.419 1172.66,136.771 1175.25,139.555C1177.84,142.339 1179.93,145.651 1181.51,149.491C1183.1,153.331 1183.89,157.891 1183.89,163.171C1183.89,170.659 1182.4,177.739 1179.42,184.411C1176.45,191.083 1172.18,196.891 1166.61,201.835C1161.04,206.779 1154.3,210.715 1146.38,213.643C1138.46,216.571 1129.55,218.035 1119.66,218.035C1114.96,218.035 1110.31,217.555 1105.7,216.595C1101.09,215.635 1096.75,214.339 1092.66,212.707C1088.59,211.075 1084.87,209.131 1081.51,206.875C1078.14,204.619 1075.41,202.195 1073.3,199.603L1084.24,183.187C1085.59,181.267 1087.14,179.755 1088.92,178.651C1090.7,177.547 1092.88,176.995 1095.47,176.995C1097.87,176.995 1099.94,177.571 1101.66,178.723C1103.39,179.875 1105.27,181.123 1107.28,182.467C1109.3,183.811 1111.7,185.059 1114.48,186.211C1117.27,187.363 1120.91,187.939 1125.42,187.939C1131.76,187.939 1136.46,186.523 1139.54,183.691C1142.61,180.859 1144.14,177.523 1144.14,173.683C1144.14,170.707 1143.35,168.259 1141.77,166.339C1140.18,164.419 1138.1,162.763 1135.51,161.371C1132.91,159.979 1129.99,158.731 1126.72,157.627C1123.46,156.523 1120.1,155.299 1116.64,153.955C1113.18,152.611 1109.83,151.051 1106.56,149.275C1103.3,147.499 1100.37,145.267 1097.78,142.579C1095.18,139.891 1093.1,136.579 1091.51,132.643C1089.93,128.707 1089.14,123.955 1089.14,118.387C1089.14,111.475 1090.41,104.755 1092.95,98.227C1095.5,91.699 1099.29,85.915 1104.33,80.875C1109.37,75.835 1115.63,71.779 1123.12,68.707C1130.61,65.635 1139.35,64.099 1149.33,64.099C1159.31,64.099 1168.22,65.827 1176.04,69.283C1183.87,72.739 1190.32,76.963 1195.41,81.955L1183.89,97.795Z" style="fill:none;"/>
        <path d="M310.385,66.403L249.617,215.731L214.769,215.731C213.041,215.731 211.625,215.155 210.521,214.003C209.417,212.851 208.625,210.931 208.145,208.243L197.201,133.795C196.913,131.683 196.649,129.595 196.409,127.531C196.169,125.467 195.953,123.331 195.761,121.123C194.993,123.331 194.201,125.491 193.385,127.603C192.569,129.715 191.729,131.875 190.865,134.083L162.353,208.243C160.337,213.235 157.169,215.731 152.849,215.731L119.441,215.731L94.961,66.403L129.233,66.403C132.113,66.403 134.489,67.147 136.361,68.635C138.233,70.123 139.409,71.971 139.889,74.179L144.209,141.139C144.881,150.931 145.313,160.435 145.505,169.651C147.233,165.043 149.057,160.363 150.977,155.611C152.897,150.859 154.865,146.035 156.881,141.139L181.937,74.035C182.801,71.827 184.337,69.979 186.545,68.491C188.753,67.003 191.153,66.259 193.745,66.259L213.041,66.259C216.113,66.259 218.585,67.003 220.457,68.491C222.329,69.979 223.409,71.827 223.697,74.035L232.337,141.139C233.105,146.035 233.777,150.835 234.353,155.539C234.929,160.243 235.457,164.947 235.937,169.651C237.281,165.043 238.697,160.387 240.185,155.683C241.673,150.979 243.281,146.131 245.009,141.139L266.033,74.179C266.801,71.971 268.265,70.123 270.425,68.635C272.585,67.147 274.961,66.403 277.553,66.403L310.385,66.403Z" style="fill:rgb(28,136,193);fill-rule:nonzero;stroke:white;stroke-width:8.25px;"/>
        <path d="M384.113,94.771C376.817,94.771 370.169,96.403 364.169,99.667C358.169,102.931 353.009,107.371 348.689,112.987C344.369,118.603 341.033,125.131 338.681,132.571C336.329,140.011 335.153,147.955 335.153,156.403C335.153,161.203 335.537,165.283 336.305,168.643C337.073,172.003 338.105,174.715 339.401,176.779C340.697,178.843 342.233,180.355 344.009,181.315C345.785,182.275 347.729,182.755 349.841,182.755C353.105,182.755 356.273,181.531 359.345,179.083C362.417,176.635 365.321,173.299 368.057,169.075C370.793,164.851 373.313,159.907 375.617,154.243C377.921,148.579 379.889,142.531 381.521,136.099L386.849,94.771L384.113,94.771ZM377.201,190.819C371.153,199.267 364.361,205.915 356.825,210.763C349.289,215.611 341.009,218.035 331.985,218.035C326.609,218.035 321.425,216.955 316.433,214.795C311.441,212.635 307.025,209.371 303.185,205.003C299.345,200.635 296.273,195.067 293.969,188.299C291.665,181.531 290.513,173.539 290.513,164.323C290.513,150.787 292.985,137.947 297.929,125.803C302.873,113.659 309.785,103.027 318.665,93.907C327.545,84.787 338.081,77.539 350.273,72.163C362.465,66.787 375.857,64.099 390.449,64.099C397.553,64.099 404.753,64.579 412.049,65.539C419.345,66.499 426.545,68.227 433.649,70.723L415.505,215.731L391.601,215.731C388.817,215.731 386.489,215.371 384.617,214.651C382.745,213.931 381.257,212.947 380.153,211.699C379.049,210.451 378.281,208.963 377.849,207.235C377.417,205.507 377.201,203.635 377.201,201.619L377.201,190.819Z" style="fill:rgb(28,136,193);fill-rule:nonzero;stroke:white;stroke-width:8.25px;"/>
        <path d="M486.497,97.219C490.145,90.787 494.033,85.267 498.161,80.659C502.289,76.051 506.537,72.475 510.905,69.931C515.273,67.387 519.737,65.947 524.297,65.611C528.857,65.275 533.441,66.163 538.049,68.275L529.985,109.603C524.513,107.299 519.401,106.243 514.649,106.435C509.897,106.627 505.529,108.259 501.545,111.331C497.561,114.403 493.961,119.011 490.745,125.155C487.529,131.299 484.769,139.171 482.465,148.771L474.401,215.731L430.625,215.731L448.769,66.403L471.809,66.403C476.417,66.403 480.017,67.483 482.609,69.643C485.201,71.803 486.497,75.331 486.497,80.227L486.497,97.219Z" style="fill:rgb(28,136,193);fill-rule:nonzero;stroke:white;stroke-width:8.25px;"/>
        <path d="M599.969,94.483C592.577,94.483 586.097,97.435 580.529,103.339C574.961,109.243 570.833,117.331 568.145,127.603C577.361,126.163 584.849,124.627 590.609,122.995C596.369,121.363 600.833,119.611 604.001,117.739C607.169,115.867 609.305,113.875 610.409,111.763C611.513,109.651 612.065,107.347 612.065,104.851C612.065,102.355 611.105,100.003 609.185,97.795C607.265,95.587 604.193,94.483 599.969,94.483ZM649.217,188.083C643.937,193.267 638.777,197.755 633.737,201.547C628.697,205.339 623.513,208.459 618.185,210.907C612.857,213.355 607.193,215.155 601.193,216.307C595.193,217.459 588.641,218.035 581.537,218.035C572.705,218.035 564.593,216.523 557.201,213.499C549.809,210.475 543.449,206.203 538.121,200.683C532.793,195.163 528.665,188.515 525.737,180.739C522.809,172.963 521.345,164.323 521.345,154.819C521.345,146.851 522.233,139.075 524.009,131.491C525.785,123.907 528.329,116.779 531.641,110.107C534.953,103.435 539.009,97.291 543.809,91.675C548.609,86.059 554.009,81.235 560.009,77.203C566.009,73.171 572.585,70.027 579.737,67.771C586.889,65.515 594.497,64.387 602.561,64.387C610.529,64.387 617.609,65.539 623.801,67.843C629.993,70.147 635.201,73.147 639.425,76.843C643.649,80.539 646.865,84.691 649.073,89.299C651.281,93.907 652.385,98.515 652.385,103.123C652.385,109.939 651.041,116.155 648.353,121.771C645.665,127.387 640.985,132.403 634.313,136.819C627.641,141.235 618.665,144.979 607.385,148.051C596.105,151.123 581.921,153.523 564.833,155.251C565.025,165.427 567.257,172.867 571.529,177.571C575.801,182.275 582.113,184.627 590.465,184.627C594.401,184.627 597.809,184.291 600.689,183.619C603.569,182.947 606.089,182.083 608.249,181.027C610.409,179.971 612.353,178.867 614.081,177.715C615.809,176.563 617.465,175.459 619.049,174.403C620.633,173.347 622.289,172.483 624.017,171.811C625.745,171.139 627.713,170.803 629.921,170.803C631.361,170.803 632.753,171.163 634.097,171.883C635.441,172.603 636.641,173.539 637.697,174.691L649.217,188.083Z" style="fill:rgb(28,136,193);fill-rule:nonzero;stroke:white;stroke-width:8.25px;"/>
        <path d="M710.417,85.987C717.137,78.499 724.289,72.979 731.873,69.427C739.457,65.875 747.281,64.099 755.345,64.099C761.585,64.099 767.273,65.347 772.409,67.843C777.545,70.339 781.841,73.987 785.297,78.787C788.753,83.587 791.201,89.515 792.641,96.571C794.081,103.627 794.225,111.715 793.073,120.835L781.841,215.731L737.201,215.731L748.433,120.835C748.913,116.803 749.057,113.395 748.865,110.611C748.673,107.827 748.145,105.571 747.281,103.843C746.417,102.115 745.217,100.891 743.681,100.171C742.145,99.451 740.273,99.091 738.065,99.091C735.089,99.091 731.969,99.979 728.705,101.755C725.441,103.531 722.297,106.051 719.273,109.315C716.249,112.579 713.417,116.539 710.777,121.195C708.137,125.851 705.953,131.011 704.225,136.675L694.577,215.731L649.937,215.731L676.145,0.163L720.785,0.163L710.417,85.987Z" style="fill:rgb(28,136,193);fill-rule:nonzero;stroke:white;stroke-width:8.25px;"/>
        <path d="M889.121,94.771C881.825,94.771 875.177,96.403 869.177,99.667C863.177,102.931 858.017,107.371 853.697,112.987C849.377,118.603 846.041,125.131 843.689,132.571C841.337,140.011 840.161,147.955 840.161,156.403C840.161,161.203 840.545,165.283 841.313,168.643C842.081,172.003 843.113,174.715 844.409,176.779C845.705,178.843 847.241,180.355 849.017,181.315C850.793,182.275 852.737,182.755 854.849,182.755C858.113,182.755 861.281,181.531 864.353,179.083C867.425,176.635 870.329,173.299 873.065,169.075C875.801,164.851 878.321,159.907 880.625,154.243C882.929,148.579 884.897,142.531 886.529,136.099L891.857,94.771L889.121,94.771ZM882.209,190.819C876.161,199.267 869.369,205.915 861.833,210.763C854.297,215.611 846.017,218.035 836.993,218.035C831.617,218.035 826.433,216.955 821.441,214.795C816.449,212.635 812.033,209.371 808.193,205.003C804.353,200.635 801.281,195.067 798.977,188.299C796.673,181.531 795.521,173.539 795.521,164.323C795.521,150.787 797.993,137.947 802.937,125.803C807.881,113.659 814.793,103.027 823.673,93.907C832.553,84.787 843.089,77.539 855.281,72.163C867.473,66.787 880.865,64.099 895.457,64.099C902.561,64.099 909.761,64.579 917.057,65.539C924.353,66.499 931.553,68.227 938.657,70.723L920.513,215.731L896.609,215.731C893.825,215.731 891.497,215.371 889.625,214.651C887.753,213.931 886.265,212.947 885.161,211.699C884.057,210.451 883.289,208.963 882.857,207.235C882.425,205.507 882.209,203.635 882.209,201.619L882.209,190.819Z" style="fill:rgb(28,136,193);fill-rule:nonzero;stroke:white;stroke-width:8.25px;"/>
        <path d="M1084.24,66.403L1066.1,215.731L1043.35,215.731C1032.79,215.731 1027.51,210.835 1027.51,201.043L1027.51,191.539C1020.31,200.563 1012.58,207.235 1004.32,211.555C996.065,215.875 987.473,218.035 978.545,218.035C972.305,218.035 966.641,216.787 961.553,214.291C956.465,211.795 952.217,208.123 948.809,203.275C945.401,198.427 942.977,192.475 941.537,185.419C940.097,178.363 939.953,170.275 941.105,161.155L952.337,66.403L996.977,66.403L985.745,161.155C985.265,165.187 985.097,168.595 985.241,171.379C985.385,174.163 985.889,176.395 986.753,178.075C987.617,179.755 988.793,180.955 990.281,181.675C991.769,182.395 993.617,182.755 995.825,182.755C998.897,182.755 1002.07,181.867 1005.33,180.091C1008.59,178.315 1011.76,175.819 1014.83,172.603C1017.9,169.387 1020.76,165.475 1023.4,160.867C1026.04,156.259 1028.22,151.123 1029.95,145.459L1039.6,66.403L1084.24,66.403Z" style="fill:rgb(28,136,193);fill-rule:nonzero;stroke:white;stroke-width:8.25px;"/>
        <path d="M1183.89,97.795C1182.55,99.523 1181.3,100.771 1180.14,101.539C1178.99,102.307 1177.46,102.691 1175.54,102.691C1173.62,102.691 1171.72,102.259 1169.85,101.395C1167.98,100.531 1165.96,99.547 1163.8,98.443C1161.64,97.339 1159.19,96.355 1156.46,95.491C1153.72,94.627 1150.58,94.195 1147.03,94.195C1140.4,94.195 1135.67,95.467 1132.84,98.011C1130.01,100.555 1128.59,103.843 1128.59,107.875C1128.59,110.467 1129.38,112.675 1130.97,114.499C1132.55,116.323 1134.64,117.955 1137.23,119.395C1139.83,120.835 1142.78,122.155 1146.09,123.355C1149.4,124.555 1152.79,125.899 1156.24,127.387C1159.7,128.875 1163.08,130.579 1166.39,132.499C1169.7,134.419 1172.66,136.771 1175.25,139.555C1177.84,142.339 1179.93,145.651 1181.51,149.491C1183.1,153.331 1183.89,157.891 1183.89,163.171C1183.89,170.659 1182.4,177.739 1179.42,184.411C1176.45,191.083 1172.18,196.891 1166.61,201.835C1161.04,206.779 1154.3,210.715 1146.38,213.643C1138.46,216.571 1129.55,218.035 1119.66,218.035C1114.96,218.035 1110.31,217.555 1105.7,216.595C1101.09,215.635 1096.75,214.339 1092.66,212.707C1088.59,211.075 1084.87,209.131 1081.51,206.875C1078.14,204.619 1075.41,202.195 1073.3,199.603L1084.24,183.187C1085.59,181.267 1087.14,179.755 1088.92,178.651C1090.7,177.547 1092.88,176.995 1095.47,176.995C1097.87,176.995 1099.94,177.571 1101.66,178.723C1103.39,179.875 1105.27,181.123 1107.28,182.467C1109.3,183.811 1111.7,185.059 1114.48,186.211C1117.27,187.363 1120.91,187.939 1125.42,187.939C1131.76,187.939 1136.46,186.523 1139.54,183.691C1142.61,180.859 1144.14,177.523 1144.14,173.683C1144.14,170.707 1143.35,168.259 1141.77,166.339C1140.18,164.419 1138.1,162.763 1135.51,161.371C1132.91,159.979 1129.99,158.731 1126.72,157.627C1123.46,156.523 1120.1,155.299 1116.64,153.955C1113.18,152.611 1109.83,151.051 1106.56,149.275C1103.3,147.499 1100.37,145.267 1097.78,142.579C1095.18,139.891 1093.1,136.579 1091.51,132.643C1089.93,128.707 1089.14,123.955 1089.14,118.387C1089.14,111.475 1090.41,104.755 1092.95,98.227C1095.5,91.699 1099.29,85.915 1104.33,80.875C1109.37,75.835 1115.63,71.779 1123.12,68.707C1130.61,65.635 1139.35,64.099 1149.33,64.099C1159.31,64.099 1168.22,65.827 1176.04,69.283C1183.87,72.739 1190.32,76.963 1195.41,81.955L1183.89,97.795Z" style="fill:rgb(28,136,193);fill-rule:nonzero;stroke:white;stroke-width:8.25px;"/>
    </g>
</svg>
