<?xml version="1.0" encoding="UTF-8" standalone="no"?>
<!DOCTYPE svg PUBLIC "-//W3C//DTD SVG 1.1//EN" "http://www.w3.org/Graphics/SVG/1.1/DTD/svg11.dtd">
<svg width="100%" height="100%" viewBox="0 0 256 256" version="1.1" xmlns="http://www.w3.org/2000/svg" xmlns:xlink="http://www.w3.org/1999/xlink" xml:space="preserve" style="fill-rule:evenodd;clip-rule:evenodd;stroke-linejoin:round;stroke-miterlimit:1.41421;">
    <g transform="matrix(0.889846,0,0,0.889846,-22.8762,30.9189)">
        <path d="M190.721,103.123C187.937,100.819 184.841,99.211 181.433,98.299C178.025,97.387 174.785,96.931 171.713,96.931C166.529,96.931 161.753,98.659 157.385,102.115C153.017,105.571 149.249,110.107 146.081,115.723C142.913,121.339 140.441,127.747 138.665,134.947C136.889,142.147 136.001,149.491 136.001,156.979C136.001,166.483 137.393,173.371 140.177,177.643C142.961,181.915 146.657,184.051 151.265,184.051C154.337,184.051 157.529,182.899 160.841,180.595C164.153,178.291 167.369,175.123 170.489,171.091C173.609,167.059 176.537,162.331 179.273,156.907C182.009,151.483 184.337,145.651 186.257,139.411L190.721,103.123ZM247.457,0.163L220.673,215.731L196.769,215.731C193.985,215.731 191.657,215.371 189.785,214.651C187.913,213.931 186.425,212.947 185.321,211.699C184.217,210.451 183.449,208.963 183.017,207.235C182.585,205.507 182.369,203.635 182.369,201.619L182.369,189.091C175.553,198.115 168.017,205.195 159.761,210.331C151.505,215.467 142.721,218.035 133.409,218.035C127.265,218.035 121.649,216.955 116.561,214.795C111.473,212.635 107.081,209.251 103.385,204.643C99.689,200.035 96.809,194.155 94.745,187.003C92.681,179.851 91.649,171.283 91.649,161.299C91.649,152.659 92.561,144.235 94.385,136.027C96.209,127.819 98.753,120.115 102.017,112.915C105.281,105.715 109.169,99.115 113.681,93.115C118.193,87.115 123.161,81.979 128.585,77.707C134.009,73.435 139.745,70.099 145.793,67.699C151.841,65.299 158.081,64.099 164.513,64.099C170.753,64.099 176.321,65.107 181.217,67.123C186.113,69.139 190.433,71.875 194.177,75.331L203.681,0.163L247.457,0.163Z" style="fill:none;"/>
        <path d="M190.721,103.123C187.937,100.819 184.841,99.211 181.433,98.299C178.025,97.387 174.785,96.931 171.713,96.931C166.529,96.931 161.753,98.659 157.385,102.115C153.017,105.571 149.249,110.107 146.081,115.723C142.913,121.339 140.441,127.747 138.665,134.947C136.889,142.147 136.001,149.491 136.001,156.979C136.001,166.483 137.393,173.371 140.177,177.643C142.961,181.915 146.657,184.051 151.265,184.051C154.337,184.051 157.529,182.899 160.841,180.595C164.153,178.291 167.369,175.123 170.489,171.091C173.609,167.059 176.537,162.331 179.273,156.907C182.009,151.483 184.337,145.651 186.257,139.411L190.721,103.123ZM247.457,0.163L220.673,215.731L196.769,215.731C193.985,215.731 191.657,215.371 189.785,214.651C187.913,213.931 186.425,212.947 185.321,211.699C184.217,210.451 183.449,208.963 183.017,207.235C182.585,205.507 182.369,203.635 182.369,201.619L182.369,189.091C175.553,198.115 168.017,205.195 159.761,210.331C151.505,215.467 142.721,218.035 133.409,218.035C127.265,218.035 121.649,216.955 116.561,214.795C111.473,212.635 107.081,209.251 103.385,204.643C99.689,200.035 96.809,194.155 94.745,187.003C92.681,179.851 91.649,171.283 91.649,161.299C91.649,152.659 92.561,144.235 94.385,136.027C96.209,127.819 98.753,120.115 102.017,112.915C105.281,105.715 109.169,99.115 113.681,93.115C118.193,87.115 123.161,81.979 128.585,77.707C134.009,73.435 139.745,70.099 145.793,67.699C151.841,65.299 158.081,64.099 164.513,64.099C170.753,64.099 176.321,65.107 181.217,67.123C186.113,69.139 190.433,71.875 194.177,75.331L203.681,0.163L247.457,0.163Z" style="fill:rgb(51,153,255);fill-rule:nonzero;stroke:white;stroke-width:7.87px;"/>
    </g>
    <g transform="matrix(0.966385,0,0,0.969568,3.10537,2.29058)">
        <path d="M256,54.88C256,26.418 232.816,3.31 204.261,3.31L54.217,3.31C25.661,3.31 2.478,26.418 2.478,54.88L2.478,204.431C2.478,232.893 25.661,256 54.217,256L204.261,256C232.816,256 256,232.893 256,204.431L256,54.88Z" style="fill:none;stroke:rgb(50,153,255);stroke-width:6.2px;stroke-linecap:round;stroke-miterlimit:1.5;"/>
    </g>
</svg>
